<svg width="206" height="30" viewBox="0 0 206 30" fill="none" xmlns="http://www.w3.org/2000/svg">
<path d="M84.3604 8.00002C84.3924 8.00002 84.4084 8.04802 84.4084 8.14402C84.4084 8.24002 84.3924 8.28802 84.3604 8.28802C83.6884 8.28802 83.1924 8.40002 82.8724 8.62402C82.5524 8.83202 82.3444 9.25602 82.2484 9.89602L80.5924 21.056C80.5444 21.344 80.5204 21.584 80.5204 21.776C80.5204 22.16 80.6244 22.416 80.8324 22.544C81.0564 22.656 81.4644 22.712 82.0564 22.712C82.1044 22.712 82.1284 22.76 82.1284 22.856C82.1284 22.952 82.1044 23 82.0564 23C81.6564 23 81.3364 22.992 81.0964 22.976L79.6084 22.952L78.1684 22.976C77.9284 22.992 77.6004 23 77.1844 23C77.1364 23 77.1124 22.952 77.1124 22.856C77.1124 22.76 77.1364 22.712 77.1844 22.712C77.7124 22.712 78.1044 22.672 78.3604 22.592C78.6164 22.512 78.8004 22.36 78.9124 22.136C79.0404 21.896 79.1364 21.536 79.2004 21.056L80.9284 9.63202L73.9204 22.832C73.8884 22.896 73.8324 22.928 73.7524 22.928C73.6724 22.928 73.6164 22.888 73.5844 22.808L70.8724 9.99202L70.8484 9.89602L68.9524 20.384C68.8884 20.896 68.8564 21.216 68.8564 21.344C68.8564 21.824 68.9524 22.176 69.1444 22.4C69.3524 22.608 69.6804 22.712 70.1284 22.712C70.1764 22.712 70.2004 22.76 70.2004 22.856C70.2004 22.952 70.1764 23 70.1284 23C69.7924 23 69.5364 22.992 69.3604 22.976L68.2804 22.952L67.2724 22.976C67.0804 22.992 66.8004 23 66.4324 23C66.3844 23 66.3604 22.952 66.3604 22.856C66.3604 22.76 66.3844 22.712 66.4324 22.712C66.9924 22.712 67.4324 22.536 67.7524 22.184C68.0724 21.816 68.3124 21.216 68.4724 20.384L70.5604 9.10402C70.2404 8.56002 69.7284 8.28802 69.0244 8.28802C68.9924 8.28802 68.9764 8.24002 68.9764 8.14402C68.9764 8.04802 68.9924 8.00002 69.0244 8.00002L69.6964 8.02402C69.8564 8.04002 70.0724 8.04802 70.3444 8.04802C70.6324 8.04802 70.8564 8.04002 71.0164 8.02402C71.1924 8.00802 71.3204 8.00002 71.4004 8.00002C71.5764 8.00002 71.7124 8.08002 71.8084 8.24002C71.9204 8.40002 72.0324 8.73602 72.1444 9.24802L74.5924 20.696L80.9764 8.60002C81.2164 8.20002 81.4724 8.00002 81.7444 8.00002C81.8564 8.00002 82.0004 8.00802 82.1764 8.02402C82.3684 8.04002 82.5684 8.04802 82.7764 8.04802L83.7124 8.02402C83.8564 8.00802 84.0724 8.00002 84.3604 8.00002Z" fill="#D4E9E2"/>
<path d="M84.0585 23C84.0105 23 83.9865 22.952 83.9865 22.856C83.9865 22.76 84.0105 22.712 84.0585 22.712C84.5705 22.712 84.9465 22.672 85.1865 22.592C85.4425 22.512 85.6345 22.36 85.7625 22.136C85.8905 21.896 85.9945 21.536 86.0745 21.056L88.0425 9.94402C88.1065 9.52802 88.1385 9.28002 88.1385 9.20002C88.1385 8.83202 88.0265 8.59202 87.8025 8.48002C87.5785 8.35202 87.1705 8.28802 86.5785 8.28802C86.5305 8.28802 86.5065 8.24002 86.5065 8.14402C86.5065 8.04802 86.5305 8.00002 86.5785 8.00002L87.6105 8.02402C88.1865 8.05602 88.6505 8.07202 89.0025 8.07202C89.4185 8.07202 89.9305 8.05602 90.5385 8.02402L91.4985 8.00002C91.5305 8.00002 91.5465 8.04802 91.5465 8.14402C91.5465 8.24002 91.5305 8.28802 91.4985 8.28802C90.9865 8.28802 90.6025 8.33602 90.3465 8.43202C90.1065 8.52802 89.9225 8.69602 89.7945 8.93602C89.6665 9.16002 89.5545 9.51202 89.4585 9.99202L87.4905 21.056C87.4425 21.36 87.4185 21.616 87.4185 21.824C87.4185 22.176 87.5225 22.416 87.7305 22.544C87.9545 22.656 88.3705 22.712 88.9785 22.712C89.0105 22.712 89.0265 22.76 89.0265 22.856C89.0265 22.952 89.0105 23 88.9785 23C88.5625 23 88.2345 22.992 87.9945 22.976L86.5065 22.952L85.0905 22.976C84.8505 22.992 84.5065 23 84.0585 23Z" fill="#D4E9E2"/>
<path d="M95.3533 23.288C94.8093 23.288 94.2893 23.224 93.7933 23.096C93.2973 22.984 92.7773 22.776 92.2333 22.472C92.1053 22.392 92.0573 22.24 92.0893 22.016L92.4253 18.848C92.4253 18.768 92.4653 18.728 92.5453 18.728C92.6413 18.728 92.6893 18.768 92.6893 18.848C92.7213 20 93.0013 20.968 93.5293 21.752C94.0733 22.52 94.8813 22.904 95.9533 22.904C96.7373 22.904 97.4253 22.68 98.0173 22.232C98.6253 21.768 99.0093 21.056 99.1693 20.096C99.2173 19.824 99.2413 19.584 99.2413 19.376C99.2413 18.592 99.0093 17.944 98.5453 17.432C98.0973 16.904 97.4413 16.344 96.5773 15.752C95.9853 15.32 95.5133 14.96 95.1613 14.672C94.8253 14.368 94.5373 14.008 94.2973 13.592C94.0573 13.176 93.9373 12.696 93.9373 12.152C93.9373 11.928 93.9613 11.696 94.0093 11.456C94.1693 10.656 94.4893 9.97602 94.9693 9.41602C95.4653 8.85602 96.0573 8.44002 96.7453 8.16802C97.4333 7.88002 98.1453 7.73602 98.8813 7.73602C99.7293 7.73602 100.593 7.92802 101.473 8.31202C101.681 8.42402 101.777 8.56002 101.761 8.72002L101.449 11.384C101.449 11.448 101.401 11.48 101.305 11.48C101.225 11.48 101.177 11.448 101.161 11.384C101.097 10.44 100.865 9.65602 100.465 9.03202C100.065 8.40802 99.4093 8.09602 98.4973 8.09602C97.8093 8.09602 97.2333 8.27202 96.7693 8.62402C96.3213 8.96002 95.9853 9.38402 95.7613 9.89602C95.5533 10.408 95.4493 10.912 95.4493 11.408C95.4493 11.904 95.5693 12.352 95.8093 12.752C96.0493 13.136 96.3373 13.464 96.6733 13.736C97.0093 14.008 97.4733 14.352 98.0653 14.768C98.9773 15.376 99.6733 15.952 100.153 16.496C100.633 17.04 100.873 17.72 100.873 18.536C100.873 18.824 100.857 19.048 100.825 19.208C100.617 20.376 100.033 21.352 99.0733 22.136C98.1133 22.904 96.8733 23.288 95.3533 23.288Z" fill="#D4E9E2"/>
<path d="M106.439 23.288C105.895 23.288 105.375 23.224 104.879 23.096C104.383 22.984 103.863 22.776 103.319 22.472C103.191 22.392 103.143 22.24 103.175 22.016L103.511 18.848C103.511 18.768 103.551 18.728 103.631 18.728C103.727 18.728 103.775 18.768 103.775 18.848C103.807 20 104.087 20.968 104.615 21.752C105.159 22.52 105.967 22.904 107.039 22.904C107.823 22.904 108.511 22.68 109.103 22.232C109.711 21.768 110.095 21.056 110.255 20.096C110.303 19.824 110.327 19.584 110.327 19.376C110.327 18.592 110.095 17.944 109.631 17.432C109.183 16.904 108.527 16.344 107.663 15.752C107.071 15.32 106.599 14.96 106.247 14.672C105.911 14.368 105.623 14.008 105.383 13.592C105.143 13.176 105.023 12.696 105.023 12.152C105.023 11.928 105.047 11.696 105.095 11.456C105.255 10.656 105.575 9.97602 106.055 9.41602C106.551 8.85602 107.143 8.44002 107.831 8.16802C108.519 7.88002 109.231 7.73602 109.967 7.73602C110.815 7.73602 111.679 7.92802 112.559 8.31202C112.767 8.42402 112.863 8.56002 112.847 8.72002L112.535 11.384C112.535 11.448 112.487 11.48 112.391 11.48C112.311 11.48 112.263 11.448 112.247 11.384C112.183 10.44 111.951 9.65602 111.551 9.03202C111.151 8.40802 110.495 8.09602 109.583 8.09602C108.895 8.09602 108.319 8.27202 107.855 8.62402C107.407 8.96002 107.071 9.38402 106.847 9.89602C106.639 10.408 106.535 10.912 106.535 11.408C106.535 11.904 106.655 12.352 106.895 12.752C107.135 13.136 107.423 13.464 107.759 13.736C108.095 14.008 108.559 14.352 109.151 14.768C110.063 15.376 110.759 15.952 111.239 16.496C111.719 17.04 111.959 17.72 111.959 18.536C111.959 18.824 111.943 19.048 111.911 19.208C111.703 20.376 111.119 21.352 110.159 22.136C109.199 22.904 107.959 23.288 106.439 23.288Z" fill="#D4E9E2"/>
<path d="M127.533 8.00002C127.597 8.00002 127.629 8.04802 127.629 8.14402C127.629 8.24002 127.597 8.28802 127.533 8.28802C126.509 8.28802 125.461 9.04002 124.389 10.544L120.741 15.56L119.781 21.056C119.717 21.36 119.685 21.632 119.685 21.872C119.685 22.208 119.797 22.432 120.021 22.544C120.245 22.656 120.661 22.712 121.269 22.712C121.333 22.712 121.365 22.76 121.365 22.856C121.365 22.952 121.333 23 121.269 23C120.837 23 120.501 22.992 120.261 22.976L118.797 22.952L117.285 22.976C117.045 22.992 116.709 23 116.277 23C116.213 23 116.181 22.952 116.181 22.856C116.181 22.76 116.213 22.712 116.277 22.712C116.805 22.712 117.205 22.672 117.477 22.592C117.749 22.496 117.949 22.336 118.077 22.112C118.205 21.888 118.309 21.536 118.389 21.056L119.301 15.776L116.853 9.99202C116.581 9.36802 116.301 8.92802 116.013 8.67202C115.741 8.41602 115.381 8.28802 114.933 8.28802C114.869 8.28802 114.837 8.24002 114.837 8.14402C114.837 8.04802 114.869 8.00002 114.933 8.00002L115.749 8.02402C116.133 8.05602 116.413 8.07202 116.589 8.07202C116.989 8.07202 117.541 8.05602 118.245 8.02402L119.349 8.00002C119.381 8.00002 119.397 8.04002 119.397 8.12002C119.397 8.23202 119.365 8.28802 119.301 8.28802C118.869 8.28802 118.557 8.32802 118.365 8.40802C118.189 8.48802 118.101 8.62402 118.101 8.81602C118.101 8.91202 118.141 9.05602 118.221 9.24802L120.645 15.056L123.909 10.424C124.341 9.81602 124.557 9.33602 124.557 8.98402C124.557 8.52002 124.221 8.28802 123.549 8.28802C123.485 8.28802 123.453 8.24002 123.453 8.14402C123.453 8.04802 123.485 8.00002 123.549 8.00002L124.509 8.02402C125.053 8.05602 125.525 8.07202 125.925 8.07202C126.165 8.07202 126.445 8.05602 126.765 8.02402L127.533 8.00002Z" fill="#D4E9E2"/>
<path d="M148.241 7.77602V23H146.239V11.648L141.179 23H139.771L134.689 11.626V23H132.687V7.77602H134.843L140.475 20.36L146.107 7.77602H148.241Z" fill="#D4E9E2"/>
<path d="M150.888 15.322C150.888 13.826 151.225 12.484 151.9 11.296C152.574 10.0934 153.491 9.15468 154.65 8.48002C155.823 7.80535 157.121 7.46802 158.544 7.46802C160.216 7.46802 161.675 7.87135 162.922 8.67802C164.168 9.48468 165.078 10.6287 165.65 12.11H163.252C162.826 11.186 162.21 10.4747 161.404 9.97602C160.612 9.47735 159.658 9.22802 158.544 9.22802C157.473 9.22802 156.512 9.47735 155.662 9.97602C154.811 10.4747 154.144 11.186 153.66 12.11C153.176 13.0194 152.934 14.09 152.934 15.322C152.934 16.5394 153.176 17.61 153.66 18.534C154.144 19.4434 154.811 20.1474 155.662 20.646C156.512 21.1447 157.473 21.394 158.544 21.394C159.658 21.394 160.612 21.152 161.404 20.668C162.21 20.1694 162.826 19.458 163.252 18.534H165.65C165.078 20.0007 164.168 21.1374 162.922 21.944C161.675 22.736 160.216 23.132 158.544 23.132C157.121 23.132 155.823 22.802 154.65 22.142C153.491 21.4674 152.574 20.536 151.9 19.348C151.225 18.16 150.888 16.818 150.888 15.322Z" fill="#D4E9E2"/>
<path d="M180.246 12.11C179.821 11.2154 179.205 10.526 178.398 10.042C177.591 9.54335 176.653 9.29402 175.582 9.29402C174.511 9.29402 173.543 9.54335 172.678 10.042C171.827 10.526 171.153 11.23 170.654 12.154C170.17 13.0634 169.928 14.1194 169.928 15.322C169.928 16.5247 170.17 17.5807 170.654 18.49C171.153 19.3994 171.827 20.1034 172.678 20.602C173.543 21.086 174.511 21.328 175.582 21.328C177.078 21.328 178.31 20.8807 179.278 19.986C180.246 19.0914 180.811 17.8814 180.972 16.356H174.856V14.728H183.106V16.268C182.989 17.5294 182.593 18.688 181.918 19.744C181.243 20.7854 180.356 21.614 179.256 22.23C178.156 22.8314 176.931 23.132 175.582 23.132C174.159 23.132 172.861 22.802 171.688 22.142C170.515 21.4674 169.583 20.536 168.894 19.348C168.219 18.16 167.882 16.818 167.882 15.322C167.882 13.826 168.219 12.484 168.894 11.296C169.583 10.0934 170.515 9.16202 171.688 8.50202C172.861 7.82735 174.159 7.49002 175.582 7.49002C177.21 7.49002 178.647 7.89335 179.894 8.70002C181.155 9.50668 182.072 10.6434 182.644 12.11H180.246Z" fill="#D4E9E2"/>
<path d="M187.755 9.29402V14.42H193.343V16.07H187.755V21.35H194.003V23H185.753V7.64402H194.003V9.29402H187.755Z" fill="#D4E9E2"/>
<path d="M199.034 9.29402V14.42H204.622V16.07H199.034V21.35H205.282V23H197.032V7.64402H205.282V9.29402H199.034Z" fill="#D4E9E2"/>
<g clip-path="url(#clip0_436_61)">
<path d="M1.95312 28.125L12.7603 1.875L25.0875 18.4538L37.4185 1.875L48.046 28.125V1.875L25.0875 28.125L1.95312 1.875V28.125Z" stroke="white" stroke-width="2" stroke-linecap="round" stroke-linejoin="round"/>
</g>
<defs>
<clipPath id="clip0_436_61">
<rect width="50" height="30" fill="white"/>
</clipPath>
</defs>
</svg>
